# xmcd CD database file
#
# Track frame offsets:
#	150
#	35647
#	88260
#	126504
#	141430
#	160490
#	169230
#	182592
#	192480
#	201370
#	208887
#	214677
#	245100
#	282320
#
# Disc length: 4266 seconds
#
# Revision: 3
# Processed by: cddbd v1.5.2PL0 Copyright (c) Steve Scherf et al.
# Submitted via: CDex 1.51
#
DISCID=ed10a80e
DTITLE=Northern Sinfonia - Griffiths - Plane - Finzi Music for Clarinet and Orchestra
DYEAR=1995
DGENRE=Concerto
TTITLE0=Clarinet Concerto Op.31 -I- Allegro vigoroso
TTITLE1=Clarinet Concerto Op.31 -II- Adagio, ma senza rigore
TTITLE2=Clarinet Concerto Op.31 -III- Rondo: Allegro giocoso
TTITLE3=Five Bagatelles Op.23a -I- Prelude: Allegro deciso
TTITLE4=Five Bagatelles Op.23a -II- Romance: Andante tranquillo
TTITLE5=Five Bagatelles Op.23a -III- Carol: Andante semplice
TTITLE6=Five Bagatelles Op.23a -IV- Forlana: Allegretto grazioso
TTITLE7=Five Bagatelles Op.23a -V- Fughetta: Allegro vivace
TTITLE8=Three Soliloquies from 'Love's Labours Lost' Op.28 - Soliloquy 1 - The King's Poem
TTITLE9=Three Soliloquies from 'Love's Labours Lost' Op.28 - Soliloquy 2 - Longaville's Sonnet
TTITLE10=Three Soliloquies from 'Love's Labours Lost' Op.28 - Soliloquy 3 - Dumaine's Poem
TTITLE11=A Severn Rhapsody Op. 3 - A Severn Rhapsody
TTITLE12=Romance in Eb for String Orchestra Op.11
TTITLE13=Introit in F major for Solo Violin and Small Orchestra Op.6
EXTD=Robert Plane - Clarinet, Northern Philharmonia, Howard Griffiths YEAR: 1995
EXTT0=
EXTT1=
EXTT2=
EXTT3=
EXTT4=
EXTT5=
EXTT6=
EXTT7=
EXTT8=
EXTT9=
EXTT10=
EXTT11=
EXTT12=
EXTT13=
PLAYORDER=
